{"title":"Ted 2 2015 WebDl No Cinavia yoyimas","uid":12136291,"size":3345451008,"categoryP":"video","categoryS":"hd___movies","magnet":"?xt=urn:btih:d2d865e6fbe5ad4341f8f2f90a033cc98e0aebbd&amp;dn=Ted+2+2015+WebDl+No+Cinavia+yoyimas&amp;tr=udp%3A%2F%2Ftracker.openbittorrent.com%3A80&amp;tr=udp%3A%2F%2Fopen.demonii.com%3A1337&amp;tr=udp%3A%2F%2Ftracker.coppersurfer.tk%3A6969&amp;tr=udp%3A%2F%2Fexodus.desync.com%3A6969","seeders":0,"leechers":0,"uploader":"Yoyimas","files":8,"time":1437184961,"description":" Summary\n\nNewlywed couple Ted and Tami-Lynn want to have a baby, but in order to qualify to be a parent, Ted will have to prove he's a person in a court of law\n &lt;a href=&quot;\nhttp://m73i.imgup.net/vlcsnap-204b28.png&quot; rel=&quot;nofollow&quot; target=&quot;_NEW&quot;&gt;\nhttp://m73i.imgup.net/vlcsnap-204b28.png&lt;/a&gt; &lt;a href=&quot;\nhttp://g55i.imgup.net/vlcsnap-20bd3e.png&quot; rel=&quot;nofollow&quot; target=&quot;_NEW&quot;&gt;\nhttp://g55i.imgup.net/vlcsnap-20bd3e.png&lt;/a&gt; &lt;a href=&quot;\nhttp://q72i.imgup.net/vlcsnap-20fa3b.png&quot; rel=&quot;nofollow&quot; target=&quot;_NEW&quot;&gt;\nhttp://q72i.imgup.net/vlcsnap-20fa3b.png&lt;/a&gt; &lt;a href=&quot;\nhttp://w42i.imgup.net/vlcsnap-2004e2.png&quot; rel=&quot;nofollow&quot; target=&quot;_NEW&quot;&gt;\nhttp://w42i.imgup.net/vlcsnap-2004e2.png&lt;/a&gt;\n\nGeneral\nComplete name                            : C:UsersGeorgeDesktopTed 2 2015 WebDl No Cinavia yoyimasVTS_01_1.VOB\nFormat                                   : MPEG-PS\nFile size                                : 1 024 MiB\nDuration                                 : 38mn 28s\nOverall bit rate mode                    : Variable\nOverall bit rate                         : 3 721 Kbps\n\nVideo\nID                                       : 224 (0xE0)\nFormat                                   : MPEG Video\nFormat version                           : Version 2\nFormat profile                           : Main@Main\nFormat settings, BVOP                    : Yes\nFormat settings, Matrix                  : Default\nFormat settings, GOP                     : M=3, N=15\nDuration                                 : 38mn 28s\nBit rate mode                            : Variable\nBit rate                                 : 3 455 Kbps\nMaximum bit rate                         : 9 608 Kbps\nWidth                                    : 720 pixels\nHeight                                   : 480 pixels\nDisplay aspect ratio                     : 16:9\nFrame rate                               : 29.970 fps\nStandard                                 : NTSC\nColor space                              : YUV\nChroma subsampling                       : 4:2:0\nBit depth                                : 8 bits\nScan type                                : Progressive\nCompression mode                         : Lossy\nBits/(Pixel*Frame)                       : 0.334\nTime code of first frame                 : 00:00:00:00\nTime code source                         : Group of pictures header\nGOP, Open/Closed                         : Closed\nStream size                              : 951 MiB (93%)\n\nAudio\nID                                       : 189 (0xBD)-128 (0x80)\nFormat                                   : AC-3\nFormat/Info                              : Audio Coding 3\nMode extension                           : CM (complete main)\nFormat settings, Endianness              : Big\nMuxing mode                              : DVD-Video\nDuration                                 : 38mn 28s\nBit rate mode                            : Constant\nBit rate                                 : 192 Kbps\nChannel(s)                               : 2 channels\nChannel positions                        : Front: L R\nSampling rate                            : 48.0 KHz\nCompression mode                         : Lossy\nStream size                              : 52.8 MiB (5%)","torrent":{"xt":"urn:btih:d2d865e6fbe5ad4341f8f2f90a033cc98e0aebbd","amp;dn":"Ted+2+2015+WebDl+No+Cinavia+yoyimas","amp;tr":["udp%3A%2F%2Ftracker.openbittorrent.com%3A80","udp%3A%2F%2Fopen.demonii.com%3A1337","udp%3A%2F%2Ftracker.coppersurfer.tk%3A6969","udp%3A%2F%2Fexodus.desync.com%3A6969"],"infoHash":"d2d865e6fbe5ad4341f8f2f90a033cc98e0aebbd","infoHashBuffer":{"type":"Buffer","data":[210,216,101,230,251,229,173,67,65,248,242,249,10,3,60,201,142,10,235,189]},"announce":[],"urlList":[]}}